<?xml version="1.0" encoding="UTF-8"?>
<svg id="Layer_1" data-name="Layer 1" xmlns="http://www.w3.org/2000/svg" viewBox="0 0 700 931.6">
  <defs>
    <style>
      .cls-1 {
        fill: #433e3f;
      }

      .cls-2 {
        fill: #027bff;
      }
    </style>
  </defs>
  <path class="cls-1" d="M288.91,801.5l-2.51-37.19c-138-29.24-241.55-151.79-241.55-298.51s95.95-260.06,226.23-294.83l11.11-48.63c-67.65,13.2-129.86,46.15-179.69,95.98C36.41,284.42,0,372.31,0,465.8s36.41,181.39,102.51,247.49c51.62,51.62,116.54,85.14,187.03,97.35l-.63-9.14ZM597.49,218.32c-53.87-53.87-122.18-88.01-196.2-98.81l.06,12.55.08,32.91c144.04,24.44,253.73,149.84,253.73,300.83,0,141.39-96.17,260.34-226.68,294.97l-.09.37-11.2,48.26c67.89-13.12,130.33-46.12,180.31-96.11,66.1-66.1,102.51-154,102.51-247.49s-36.41-181.38-102.51-247.48Z"/>
  <polygon class="cls-2" points="456.38 447.74 391.81 720.39 384.69 750.96 380.4 769.45 372.82 802.13 369.77 815.26 365.71 832.76 342.75 931.6 335.83 829.9 334.84 815.48 333.66 798.43 331.77 770.42 330.11 745.86 327.94 714.45 324.03 541.98 243.62 541.98 313.08 188.6 314.54 182.11 319.1 162.21 326.54 129.62 329.57 116.38 333.53 99.04 356.07 0 356.35 101.07 356.41 115.85 356.49 132.27 356.56 160.73 356.63 185.81 356.63 188.6 356.77 252.45 355.8 447.74 456.38 447.74"/>
</svg>